<svg width="36" height="36" viewBox="0 0 36 36" fill="none" xmlns="http://www.w3.org/2000/svg">
  <circle cx="18" cy="18" r="18" fill="white" />
  <path d="M21.7409 28.1193C21.7975 24.3423 21.7476 18.0703 21.7363 16.7647C23.2533 16.0017 24.2675 14.761 24.2675 13.335C24.2675 12.7833 24.1002 12.29 23.826 11.822H30.5723C30.5651 11.8374 30.5571 11.8539 30.5486 11.8713C30.4824 12.0068 30.3851 12.1989 30.2609 12.4398C30.0122 12.9215 29.6564 13.5957 29.2293 14.3976C28.3748 16.0013 27.235 18.1143 26.0934 20.2158C24.9517 22.3174 23.8085 24.4073 22.9472 25.9649C22.5165 26.7438 22.1566 27.3893 21.9027 27.8364C21.8426 27.9422 21.7885 28.0369 21.7409 28.1193Z" fill="black" />
  <path d="M11.5969 13.3357C11.5969 14.7618 12.6115 16.0026 14.1286 16.7656C14.117 18.0711 14.0669 24.3429 14.124 28.1198C14.0765 28.0374 14.0224 27.9429 13.9623 27.8371C13.7084 27.39 13.3484 26.7445 12.9177 25.9657C12.0564 24.4081 10.913 22.3183 9.77129 20.2167C8.62956 18.1152 7.48965 16.0022 6.63525 14.3985C6.20802 13.5965 5.85236 12.9223 5.60363 12.4406C5.47919 12.1997 5.38188 12.0076 5.31584 11.8721C5.30732 11.8546 5.29938 11.8382 5.29199 11.8228H12.0385C11.7645 12.2907 11.5969 12.784 11.5969 13.3357Z" fill="black" />
  <path d="M17.9566 17.875C17.9619 17.8751 17.9672 17.8752 17.9726 17.8753C18.0023 17.876 18.034 17.8768 18.0638 17.8768C18.8046 17.8768 19.5348 17.6476 20.1803 17.4451C20.2519 17.4226 20.3226 17.4004 20.392 17.3789C20.3928 17.4864 20.3939 17.6391 20.3951 17.8221C20.3976 18.19 20.4008 18.68 20.404 19.1699L20.4126 20.5166L20.4154 20.9603L20.4162 21.0846L20.4164 21.1173L20.4165 21.1257V21.1272L20.2466 31.9965V31.997C20.2459 32.0712 20.2032 32.1518 20.0866 32.2365C19.97 32.3212 19.7954 32.3969 19.5739 32.4585C19.1324 32.5815 18.5381 32.6392 17.9422 32.6249L17.8107 32.6218V32.6274C17.2552 32.6323 16.7094 32.5748 16.2963 32.4606C16.0735 32.399 15.8978 32.3233 15.7803 32.2383C15.663 32.1533 15.6202 32.0722 15.6196 31.9983V31.9973L15.4492 21.1277L15.4492 21.1263L15.4493 21.1179L15.4495 21.0852L15.4503 20.9609L15.4531 20.5172L15.4617 19.1704C15.4649 18.6806 15.4681 18.1906 15.4706 17.8226C15.4718 17.6396 15.4729 17.4869 15.4736 17.3794C15.5439 17.4011 15.6154 17.4235 15.6879 17.4463C16.333 17.6488 17.062 17.8776 17.8018 17.8776C17.8275 17.8776 17.8562 17.8769 17.8828 17.8763C17.8992 17.8759 17.9149 17.8755 17.9284 17.8753L17.9566 17.875Z" fill="black" />
  <path d="M17.9389 16.439L17.8389 16.4391C16.6161 16.4214 15.517 16.0796 14.7205 15.542C13.9015 14.9893 13.4141 14.2394 13.4141 13.4275C13.4141 12.6171 13.8999 11.8683 14.7165 11.3159C15.5323 10.7639 16.6668 10.4176 17.9271 10.4154L18.0236 10.4153C19.2478 10.4324 20.3483 10.7744 21.1456 11.3125C21.9645 11.8652 22.452 12.6152 22.452 13.427C22.452 14.2374 21.966 14.9862 21.1494 15.5387C20.3335 16.0906 19.199 16.4369 17.9389 16.439Z" fill="black" />
  <path d="M5.39941 10.7434C5.44757 10.7024 5.50378 10.6574 5.56834 10.6089C5.76083 10.4641 6.0189 10.2937 6.33903 10.1076C6.97913 9.73528 7.86284 9.30238 8.95742 8.88653C11.1464 8.05482 14.1743 7.29283 17.7769 7.21785C17.8082 7.21723 17.8372 7.21713 17.8676 7.21703C17.8867 7.21695 17.9064 7.2169 17.9274 7.21669L17.9662 7.21631C17.9778 7.21636 17.9889 7.21639 17.9999 7.21641C18.0285 7.21646 18.0559 7.21651 18.0874 7.21716C21.6901 7.29211 24.7181 8.05407 26.9071 8.88576C28.0016 9.30164 28.8854 9.73454 29.5256 10.1068C29.8457 10.293 30.1036 10.4634 30.2961 10.6082C30.3606 10.6568 30.4168 10.7017 30.465 10.7428C30.4545 10.7428 30.444 10.7429 30.433 10.743C30.2212 10.7442 29.918 10.7455 29.5543 10.7468C28.8264 10.7495 27.8551 10.7521 26.8819 10.7545C25.9088 10.7569 24.9341 10.7589 24.1995 10.7603C23.8323 10.761 23.525 10.7616 23.3081 10.7619L23.0541 10.7622L23.0081 10.7622C21.8758 9.73952 20.0887 9.08666 18.0867 9.08666C18.0509 9.08666 18.0141 9.08764 17.9794 9.08856C17.9643 9.08898 17.9497 9.08936 17.9357 9.08967L17.9172 9.09005C17.9075 9.0898 17.8975 9.08951 17.8873 9.08923C17.8517 9.08823 17.8137 9.08715 17.7775 9.08715C15.7759 9.08715 13.9889 9.74026 12.8564 10.7629L12.8104 10.7629L12.5564 10.7626C12.3395 10.7622 12.0322 10.7617 11.665 10.761C10.9304 10.7596 9.95567 10.7575 8.9826 10.7551C8.00951 10.7528 7.03809 10.7501 6.31016 10.7475C5.94618 10.7462 5.64316 10.7449 5.43129 10.7436C5.42041 10.7435 5.40978 10.7435 5.39941 10.7434Z" fill="black" />
</svg>
